<?xml version="1.0" encoding="utf-8"?>
<!-- Generator: Adobe Illustrator 18.0.0, SVG Export Plug-In . SVG Version: 6.00 Build 0)  -->
<!DOCTYPE svg PUBLIC "-//W3C//DTD SVG 1.1//EN" "http://www.w3.org/Graphics/SVG/1.1/DTD/svg11.dtd">
<svg version="1.1" id="Layer_1" xmlns="http://www.w3.org/2000/svg" xmlns:xlink="http://www.w3.org/1999/xlink" x="0px" y="0px"
	 viewBox="0 0 512 512" enable-background="new 0 0 512 512" xml:space="preserve">
<path d="M11.7,390c3.3-0.9,7.5-6.4,16.1-12.6c5.3-3.8,21.4-16.1,43.7-24.6c22.3-8.5,32.6-8.8,40.6-10.2c17.5-3.2,36.1-0.8,49.3,2.3
	c21.6,5.2,35.6,17.2,58.9,45c32.7,38.8,63,42.9,92.7,32c23.1-8.5,53.4-43.6,87.1-83.4c36.1-39.4,111.5-121.8,111.5-121.8
	c0.2-0.3,0.3-0.6,0.4-1c0-0.1,0.1-0.2,0-0.5c-0.1-0.3-0.3-0.7-0.3-0.8c-21-36.8-69.5-112.7-79.1-127.7c-0.2-0.3-0.7-1.3-2-1.6
	c0,0,0,0,0-0.1c-0.2,0-0.4-0.1-0.6-0.1h0c0,0,0,0,0,0c0,0,0,0-0.1,0c-0.7,0-1.2,0.3-1.5,0.5c0,0,0,0-0.1,0c0,0-0.1,0-0.1,0
	c-3.6,2.1-8.3,4.8-13.6,8c-37.3,22.2-108.8,65.6-109.7,66.2c-0.2,0.2-0.4,0.3-0.6,0.5c0,0,0,0,0,0.1c-0.1,0.1-0.1,0.2-0.2,0.2
	c0,0-0.1,0.1-0.1,0.1c-0.1,0.3-0.2,0.6-0.1,1c0,0,0.1,0.3,0.2,0.7c2.4,11.5,40.1,186.6,47.5,220.7c-7,7.2-14,14-21.2,19.6
	c-7.5,5.8-14.6,10.5-21.6,12.8c-9.5,3.2-17.1,4.6-25.1,4.1c-23.9-1.4-42.3-17.3-54.9-32.5c-20.5-24.7-38.6-52.6-91.6-56.9
	c-60-4.9-105.6,21.2-120.7,33c-7.4,5.8-12.4,8.9-14.9,12.4c-2.6,3.5-2.4,8.4,0.7,11.7C5.7,390.6,8.9,390.8,11.7,390z"/>
</svg>
