<?xml version="1.0" encoding="utf-8"?>
<!-- Generator: Adobe Illustrator 18.0.0, SVG Export Plug-In . SVG Version: 6.00 Build 0)  -->
<!DOCTYPE svg PUBLIC "-//W3C//DTD SVG 1.1//EN" "http://www.w3.org/Graphics/SVG/1.1/DTD/svg11.dtd">
<svg version="1.1" id="Layer_1" xmlns="http://www.w3.org/2000/svg" xmlns:xlink="http://www.w3.org/1999/xlink" x="0px" y="0px"
	 viewBox="0 0 512 512" enable-background="new 0 0 512 512" xml:space="preserve">
<path d="M34.3,73.7c0-20.5,21.7-37.9,65-52.2S194.9,0,256,0c61.4,0,113.7,7.2,156.9,21.5s64.8,31.7,64.8,52.2
	c0,4.1-12.3,79.2-36.9,225.3c-3.1,15.7-22,30.9-56.8,45.6c-34.8,14.7-77.5,22-128,22s-93.2-7.3-128-22
	c-34.8-14.7-53.6-29.9-56.3-45.6C46.8,157.7,34.3,82.6,34.3,73.7z M89.1,371.2v-2c0-5.8,2.6-8.7,7.7-8.7c2,0,4.1,0.9,6.1,2.6
	c16,12.6,36.9,22.5,62.5,29.7s47.1,11.1,64.5,11.8L256,406c2.7,0,6.4-0.1,11-0.3s13.6-1,26.9-2.6c13.3-1.5,26-3.7,38.1-6.4
	c12.1-2.7,25.5-7,40.2-12.8s27.1-12.8,37.4-21l5.6-2.6c5.5,0,8.2,2.9,8.2,8.7c0,0.7-0.2,1.4-0.5,2c-7.5,41.3-12.6,68.8-15.4,82.4
	c-3.8,16.7-20.1,30.6-49.2,41.7c-29,11.1-63.1,16.6-102.4,16.6s-73.4-5.5-102.4-16.6c-29-11.1-45.2-25-48.6-41.7
	C98.5,421.2,93.2,393.7,89.1,371.2z M114.2,66c0,8.2,13.9,15.3,41.7,21.2s61.2,9,100.1,9c39.3,0,72.8-2.9,100.6-8.7
	s41.7-12.8,41.7-21c0-8.5-13.9-15.8-41.7-21.8s-61.4-9-100.6-9s-72.7,2.9-100.4,8.7S114.2,57.5,114.2,66z M185.3,246.8
	c0,19.5,6.9,36.1,20.7,49.9s30.5,20.7,49.9,20.7s36.1-6.9,49.9-20.7c13.8-13.8,20.7-30.5,20.7-49.9s-6.9-36.1-20.7-49.9
	c-13.8-13.8-30.5-20.7-49.9-20.7s-36.1,6.9-49.9,20.7S185.3,227.3,185.3,246.8z M220.7,246.8c0,9.6,3.4,17.8,10.2,24.8
	s15.2,10.5,25.1,10.5c9.9,0,18.3-3.5,25.1-10.5c6.8-7,10.2-15.3,10.2-24.8c0-9.6-3.4-17.8-10.2-24.8c-6.8-7-15.2-10.5-25.1-10.5
	c-9.9,0-18.3,3.5-25.1,10.5S220.7,237.2,220.7,246.8z"/>
</svg>
